<?xml version="1.0" standalone="no"?>
<!DOCTYPE svg PUBLIC "-//W3C//DTD SVG 20010904//EN"
 "http://www.w3.org/TR/2001/REC-SVG-20010904/DTD/svg10.dtd">
<svg version="1.0" xmlns="http://www.w3.org/2000/svg"
 width="512.000000pt" height="512.000000pt" viewBox="0 0 512.000000 512.000000"
 preserveAspectRatio="xMidYMid meet">
<metadata>
Created by potrace 1.11, written by Peter Selinger 2001-2013
</metadata>
<g transform="translate(0.000000,512.000000) scale(0.100000,-0.100000)"
fill="#000000" stroke="none">
<path d="M2330 4939 c-256 -26 -518 -108 -640 -202 l-45 -34 -245 -6 c-274 -6
-309 -13 -397 -73 -58 -40 -116 -121 -135 -189 -6 -22 -11 -70 -11 -107 l0
-68 -31 -1 c-86 -2 -172 -63 -217 -155 l-34 -69 0 -1590 0 -1590 -115 -6 c-91
-4 -124 -10 -156 -27 -58 -30 -103 -78 -133 -142 -25 -53 -26 -61 -26 -245 1
-208 7 -236 62 -272 26 -17 150 -18 2353 -18 2203 0 2327 1 2353 18 55 36 61
64 62 272 0 184 -1 192 -26 245 -30 64 -75 112 -133 142 -32 17 -65 23 -156
27 l-115 6 0 1590 0 1590 -34 69 c-45 92 -131 153 -217 155 l-31 1 0 68 c0 37
-5 85 -11 107 -19 68 -77 149 -135 189 -88 60 -123 67 -397 73 l-245 6 -45 34
c-205 156 -681 244 -1100 202z m-536 -1255 c186 -48 335 -173 430 -361 55
-109 73 -293 41 -418 -54 -213 -227 -396 -440 -467 -93 -31 -280 -33 -365 -4
-169 58 -306 165 -387 304 -73 123 -101 310 -69 456 53 236 244 435 471 490
82 20 242 20 319 0z m1846 0 c231 -54 422 -251 476 -490 32 -146 4 -333 -69
-456 -81 -139 -218 -246 -387 -304 -85 -29 -272 -27 -365 4 -213 71 -386 254
-440 467 -32 125 -14 309 41 418 93 185 233 305 417 358 79 22 238 24 327 3z
m183 -1834 c117 -19 225 -100 275 -207 23 -49 27 -71 27 -148 0 -82 -3 -97
-32 -156 -39 -79 -102 -140 -181 -177 l-57 -27 -1295 0 -1295 0 -55 26 c-149
70 -231 210 -216 369 14 158 139 294 294 320 69 11 2465 12 2535 0z"/>
<path d="M1511 3424 c-198 -72 -304 -282 -242 -481 38 -123 126 -212 249 -252
187 -62 389 29 474 215 19 41 23 66 23 154 0 97 -2 110 -30 164 -39 77 -109
147 -182 182 -48 23 -74 28 -153 31 -69 2 -107 -1 -139 -13z"/>
<path d="M3352 3421 c-111 -41 -200 -134 -237 -249 -24 -71 -17 -198 13 -266
83 -184 287 -277 474 -215 171 56 277 213 266 393 -9 133 -94 261 -215 321
-78 39 -219 46 -301 16z"/>
<path d="M224 3510 c-135 -77 -217 -249 -218 -455 0 -160 45 -284 143 -388 42
-45 105 -87 131 -87 7 0 10 154 10 480 0 264 -3 480 -7 480 -5 0 -31 -13 -59
-30z"/>
<path d="M4830 3060 c0 -326 3 -480 10 -480 26 0 89 42 131 87 98 104 143 228
143 388 -1 155 -44 284 -129 383 -32 37 -125 102 -147 102 -5 0 -8 -216 -8
-480z"/>
</g>
</svg>
